<?xml version="1.0" encoding="utf-8"?>
<!-- Generator: Adobe Illustrator 16.0.0, SVG Export Plug-In . SVG Version: 6.00 Build 0)  -->
<!DOCTYPE svg PUBLIC "-//W3C//DTD SVG 1.1//EN" "http://www.w3.org/Graphics/SVG/1.1/DTD/svg11.dtd">
<svg version="1.1" id="Layer_1" xmlns="http://www.w3.org/2000/svg" xmlns:xlink="http://www.w3.org/1999/xlink" x="0px" y="0px"
	 width="460px" height="460px" viewBox="0 0 460 460" enable-background="new 0 0 460 460" xml:space="preserve">
<g>
	<path fill-rule="evenodd" clip-rule="evenodd" fill="#9E9AA2" d="M460.92,177.56c-2.16,3.306-1.756,7.253-2.631,10.876
		c-2.056,8.506-4.712,16.765-8.561,24.74c-2.166-0.988-3.123-3.001-4.619-4.438c-8.328-8.001-18.371-11.741-29.783-11.852
		c-2.906-0.029-5.049-0.784-7.352-2.693c-9.75-8.092-21.003-11.508-33.574-9.017c-2.421,0.48-3.973,0.123-5.85-1.084
		c-8.456-5.438-17.764-7.549-28.15-6.941c0-11.948,0-24.032-0.001-36.117c0-20.953-12.339-36.314-32.88-40.72
		c-18.637-3.998-39.994,9.689-44.364,29.75c-1.142,5.238-1.752,10.495-1.721,15.88c0.106,17.777-0.026,35.557,0.095,53.333
		c0.024,3.628,0.113,5.264-4.788,4.266c-21.644-4.406-43.513,10.489-47.828,32.224c-0.059,0.3-0.024,0.617-0.086,0.914
		c-1.479,6.993-1.474,7.092-8.953,7.603c-2.136,0.146-3.279,1.402-4.597,2.648c-64.474,60.997-169.892,29.976-191.244-56.248
		c-1.082-4.367-1.027-9.001-3.114-13.124c0-9.2,0-18.4,0-27.6c2.123-2.669,1.625-6.028,2.294-9.061
		c12.113-54.933,58.341-92.122,114.704-92.135c74.672-0.019,149.344-0.005,224.016-0.005c5.211,0,10.391,0.231,15.593,0.789
		c48.652,5.216,88.014,39.285,99.932,86.757c1.36,5.42,2.317,10.941,3.461,16.416C460.92,161,460.92,169.28,460.92,177.56z
		 M133.259,201.298c0-5.211,0.199-10.433-0.069-15.629c-0.18-3.47,0.66-4.776,4.457-4.667c9.954,0.287,19.922,0.104,29.884,0.094
		c8.888-0.009,11.716-2.895,11.727-11.939c0.005-3.678,0.011-7.356-0.001-11.035c-0.027-8.424-2.922-11.404-11.292-11.447
		c-9.962-0.051-19.929-0.18-29.885,0.073c-3.722,0.095-5.034-0.763-4.92-4.739c0.294-10.261,0.136-20.536,0.084-30.804
		c-0.036-7.204-3.147-10.363-10.359-10.519c-4.596-0.101-9.197-0.092-13.793-0.003c-7.449,0.145-10.477,3.283-10.503,10.84
		c-0.034,10.269-0.141,20.541,0.066,30.806c0.067,3.353-0.753,4.502-4.294,4.419c-10.264-0.242-20.537-0.136-30.805-0.067
		c-7.866,0.052-10.917,3.125-10.969,10.84c-0.029,4.292-0.032,8.583,0,12.875c0.056,7.415,3.267,10.665,10.66,10.692
		c10.422,0.04,20.847,0.128,31.266-0.06c3.155-0.058,4.21,0.733,4.146,4.037c-0.208,10.725-0.142,21.457-0.051,32.184
		c0.053,6.256,3.474,9.694,9.655,9.825c5.056,0.108,10.117,0.096,15.173,0.003c6.25-0.114,9.676-3.487,9.8-9.687
		C133.342,212.029,133.257,206.663,133.259,201.298z M380.628,158.24c15.695-0.082,28.609-13.044,28.615-28.721
		c0.005-15.834-13.281-29.019-29.032-28.812c-15.753,0.207-28.593,13.114-28.621,28.769
		C351.563,145.331,364.679,158.323,380.628,158.24z"/>
	<path fill-rule="evenodd" clip-rule="evenodd" fill="#9E9AA2" d="M275.127,226.537c0-29.211-0.033-57.555,0.015-85.898
		c0.022-12.876,8.027-23.26,20.35-26.664c14.302-3.951,30.759,7.956,31.051,22.948c0.355,18.234,0.145,36.481,0.179,54.722
		c0.002,1.633,0,3.267,0,5.628c4.162-2.562,7.714-4.866,11.834-5.88c10.584-2.604,19.546,0.79,27.434,7.685
		c1.615,1.412,2.579,2.1,4.946,1.061c10.666-4.677,22.448-2.451,30.1,6.319c3.306,3.791,6.499,4.394,11.021,4.043
		c14.884-1.153,25.277,5.667,30.589,19.503c1.434,3.734,2.821,7.521,3.01,11.506c0.832,17.729,2.271,35.507-4.843,52.555
		c-3.074,7.366-7.066,14.251-10.445,21.45c-2.881,6.137-4.916,12.511-6.185,19.161c-1.652,8.654-6.834,12.956-15.696,12.964
		c-32.65,0.028-65.302,0.064-97.953-0.02c-11.729-0.031-20.752-5.103-25.988-15.754c-8.253-16.79-16.877-33.339-28.472-48.127
		c-5.408-6.897-11.33-13.128-19.578-16.96c-11.2-5.203-15.973-14.429-14.759-26.937c0.939-9.673,10.666-20.115,20.765-22.749
		c9.833-2.564,18.312,0.673,26.516,5.523C270.829,223.689,272.569,224.891,275.127,226.537z"/>
	<path fill-rule="evenodd" clip-rule="evenodd" fill="#9E9AA2" d="M357.51,356.96c18.23,0,36.461-0.017,54.69,0.007
		c10.026,0.012,15.57,5.598,15.596,15.666c0.021,8.578,0.059,17.158-0.011,25.736c-0.073,8.943-5.749,14.681-14.688,14.691
		c-37.072,0.046-74.146,0.048-111.219-0.002c-8.881-0.012-14.592-5.763-14.703-14.711c-0.108-8.731-0.077-17.465-0.01-26.196
		c0.072-9.476,5.757-15.159,15.195-15.18C320.744,356.932,339.127,356.96,357.51,356.96z M398.965,396.675
		c6.708,0.303,11.986-4.372,12.308-10.902c0.325-6.628-4.394-11.933-10.93-12.286c-6.664-0.36-11.98,4.371-12.249,10.903
		C387.815,391.163,392.432,396.38,398.965,396.675z"/>
</g>
</svg>