<?xml version="1.0" encoding="utf-8"?>
<!-- Generator: Adobe Illustrator 16.0.0, SVG Export Plug-In . SVG Version: 6.00 Build 0)  -->
<!DOCTYPE svg PUBLIC "-//W3C//DTD SVG 1.1//EN" "http://www.w3.org/Graphics/SVG/1.1/DTD/svg11.dtd">
<svg version="1.1" xmlns="http://www.w3.org/2000/svg" xmlns:xlink="http://www.w3.org/1999/xlink" x="0px" y="0px"
	 width="199.029px" height="97.672px" viewBox="0 0 199.029 97.672" enable-background="new 0 0 199.029 97.672"
	 xml:space="preserve">

	<!-- <g id="Layer_1_copy">
		<path fill="#222222" d="M118.929,58.002c0.021,0.92-0.26,1.3-1.22,1.26c-1.49-0.05-2.979,0.01-4.46-0.02
			c-0.8-0.01-1.16,0.149-1.15,1.13c0.07,5.89,0.021,11.79,0.07,17.689c0.01,1-0.29,1.341-1.3,1.301c-2.06-0.07-4.13-0.091-6.19,0.01
			c-1.21,0.06-1.399-0.43-1.399-1.49c0.05-5.71-0.01-11.41,0.05-17.12c0.01-1.18-0.29-1.62-1.51-1.529
			c-1.391,0.1-2.79-0.021-4.17,0.029c-0.91,0.04-1.3-0.229-1.271-1.2c0.07-1.92,0.07-3.84,0-5.76c-0.03-0.96,0.33-1.21,1.25-1.2
			c3.351,0.04,6.71,0.021,10.07,0.021c3.3,0,6.61,0.03,9.92-0.021c1-0.02,1.35,0.28,1.31,1.29
			C118.859,54.262,118.869,56.132,118.929,58.002z"/>
		<path fill="#222222" d="M130.349,58.842c-0.069,3.3-0.109,3.3,3.19,3.3c1.44,0,2.88,0.04,4.32-0.01c0.85-0.03,1.21,0.23,1.17,1.14
			c-0.061,1.341-0.061,2.69,0,4.03c0.05,0.92-0.34,1.13-1.181,1.11c-2.109-0.04-4.22,0.02-6.329-0.03
			c-0.87-0.02-1.15,0.25-1.171,1.14c-0.06,3.2-0.09,3.2,3.12,3.2c1.87,0,3.75,0.03,5.62-0.02c0.82-0.021,1.09,0.29,1.07,1.09
			c-0.05,1.49-0.04,2.97,0,4.46c0.02,0.78-0.22,1.11-1.05,1.1c-5.521-0.02-11.04-0.029-16.561,0.011
			c-1.01,0.01-1.029-0.54-1.029-1.28c0.02-4.271,0.01-8.54,0.01-12.811c0-4.27,0.03-8.539-0.021-12.81
			c-0.02-1.08,0.32-1.38,1.391-1.37c5.319,0.061,10.649,0.05,15.979,0.01c1.021-0.01,1.34,0.32,1.28,1.311
			c-0.07,1.34-0.07,2.689,0,4.03c0.05,0.979-0.24,1.35-1.28,1.319c-2.439-0.06-4.89,0.01-7.34-0.029
			C130.709,57.712,130.369,57.922,130.349,58.842z"/>
		<path fill="#222222" d="M152.329,65.662c0.32,3.42,2.64,5.88,5.94,6.18c2.699,0.25,5.369,0.09,7.819-1.26
			c0.87-0.48,1.2-0.36,1.16,0.67c-0.05,1.01-0.01,2.02-0.01,3.02v1.591c0,2.55,0.02,2.64-2.521,3.26
			c-5.42,1.34-10.739,1.37-15.62-1.88c-4.779-3.2-7.05-9.41-5.699-15.51c1.239-5.641,5.84-9.99,11.5-10.891
			c3.76-0.6,7.439-0.37,11.06,0.88c0.94,0.32,1.36,0.811,1.311,1.88c-0.101,1.86-0.07,3.74-0.021,5.61c0.03,1.03-0.3,1.13-1.16,0.69
			c-2.899-1.46-5.97-1.811-9.08-0.98C153.939,59.732,152.039,62.612,152.329,65.662z"/>
		<path fill="#222222" d="M196.929,78.002c0.021,1.1-0.319,1.4-1.39,1.36c-2.11-0.07-4.22-0.051-6.33,0
			c-0.87,0.02-1.18-0.271-1.17-1.15c0.04-2.59-0.01-5.18,0.03-7.78c0.01-0.91-0.271-1.29-1.23-1.26c-2.01,0.05-4.029,0.061-6.05-0.01
			c-0.99-0.03-1.19,0.399-1.18,1.29c0.04,2.54-0.03,5.09,0.04,7.63c0.02,1.03-0.33,1.31-1.32,1.28c-2.16-0.061-4.32-0.051-6.48,0
			c-0.81,0.01-1.09-0.271-1.079-1.08c0.02-8.69,0.01-17.38,0-26.061c0-0.77,0.189-1.13,1.05-1.12c2.25,0.051,4.51,0.051,6.76,0
			c0.84-0.01,1.07,0.311,1.06,1.101c-0.04,2.49,0.021,4.99-0.029,7.49c-0.021,0.909,0.229,1.27,1.2,1.239
			c2.02-0.069,4.029-0.06,6.05,0c0.96,0.03,1.229-0.34,1.21-1.26c-0.05-2.45,0.02-4.89-0.03-7.34c-0.02-0.93,0.271-1.26,1.24-1.23
			c2.06,0.061,4.12,0.07,6.18-0.01c1.11-0.04,1.49,0.26,1.47,1.43c-0.069,4.271-0.029,8.54-0.029,12.811
			C196.899,69.562,196.869,73.782,196.929,78.002z"/>
		<path fill="#B50000" d="M198.06,20.922c-0.03,2.03-1.761,3.72-3.801,3.7c-2.069-0.02-3.71-1.7-3.689-3.78
			c0.02-2.05,1.74-3.73,3.779-3.71C196.389,17.162,198.079,18.892,198.06,20.922z"/>
		<path fill="#B50000" d="M197.789,43.302c0.021,0.891-0.14,1.271-1.15,1.22c-1.67-0.09-3.35-0.05-5.029-0.01
			c-0.7,0.01-1.021-0.12-1.011-0.93c0.03-5.37,0.021-10.74,0.011-16.11c-0.011-0.61,0.149-0.86,0.8-0.84
			c1.87,0.03,3.74,0.05,5.61-0.01c0.85-0.03,0.75,0.47,0.75,1.01v8.05C197.77,38.222,197.729,40.762,197.789,43.302z"/>
		<path fill="#B50000" d="M187.459,43.542c0.01,0.75-0.189,1-0.95,0.97c-1.68-0.05-3.359-0.06-5.029,0
			c-0.86,0.04-1.021-0.279-1.011-1.05c0.04-3.74,0.021-7.48,0.021-11.21c0-3.69,0.03-7.38-0.021-11.07
			c-0.02-0.93,0.21-1.24,1.17-1.19c1.58,0.08,3.16,0.05,4.74,0.01c0.74-0.02,1.09,0.09,1.09,0.98
			C187.429,28.502,187.439,36.022,187.459,43.542z"/>
		<path fill="#B50000" d="M178.159,39.272c0.01-0.67,0.08-1.22-0.96-0.99c-0.7,0.16-0.75-0.53-0.75-1.09
			c0.01-1.59,0.01-3.17,0.01-4.75v-3.74c0-2.06,0-2.08-2.12-2.05c-0.99,0.01-2.43-0.47-2.89,0.16c-0.95,1.28-1.521,0.5-2.311,0.09
			c-0.46-0.24-0.949-0.44-1.46-0.57c-5.779-1.46-11.02,2.28-11.609,8.36c-0.36,3.7,0.74,6.95,4.029,8.91
			c3.28,1.95,6.771,2.28,10.131-0.02c0.399-0.28,0.569-0.26,0.93,0.07c1.689,1.529,4.38,1.84,6.42,0.92c0.59-0.271,0.6-0.65,0.6-1.13
			C178.169,42.052,178.149,40.662,178.159,39.272z M166.159,38.762c-1.94-0.01-3.3-1.35-3.271-3.22c0.021-1.86,1.4-3.18,3.33-3.17
			c1.971,0,3.391,1.41,3.36,3.31C169.549,37.502,168.119,38.782,166.159,38.762z"/>
		<path fill="#B50000" d="M155.219,26.642c-1.29,2.63-2.51,5.1-3.739,7.57c-1.54,3.13-3.11,6.25-4.61,9.4
			c-0.32,0.649-0.68,0.83-1.38,0.92c-1.93,0.25-2.91-0.46-3.74-2.28c-2.37-5.2-5.01-10.29-7.64-15.61c2.319,0,4.45,0.03,6.58-0.02
			c0.76-0.01,0.819,0.52,1.01,0.99c0.939,2.18,1.87,4.36,2.93,6.85c1.09-2.49,2.07-4.65,2.97-6.85c0.29-0.71,0.62-1.03,1.45-1
			C151.039,26.692,153.039,26.642,155.219,26.642z"/>
		<path fill="#B50000" d="M133.56,42.812c-0.12-1.28-0.051-2.58-0.04-3.879c0-0.51-0.08-0.83-0.721-0.67
			c-0.819,0.2-0.989-0.3-0.989-0.97c0.01-1.63,0.01-3.26,0.01-4.89c0-0.72,0.029-1.44-0.01-2.16c-0.08-1.18,0.539-2.74-0.261-3.42
			c-0.67-0.57-2.189-0.2-3.33-0.17c-0.54,0.02-1.279-0.33-1.6,0.26c-0.57,1.06-1.11,0.65-1.78,0.18c-0.55-0.39-1.18-0.62-1.84-0.78
			c-5.93-1.44-11.34,2.66-11.61,8.86c-0.159,3.61,1,6.7,4.23,8.53c3.27,1.85,6.71,2.149,10-0.141c0.33-0.229,0.53-0.319,0.83,0.03
			c1.55,1.75,3.52,1.601,5.57,1.26C133.27,44.652,133.679,44.052,133.56,42.812z M121.539,38.762c-1.94,0-3.31-1.33-3.29-3.19
			c0.01-1.87,1.38-3.2,3.3-3.2c1.98-0.01,3.41,1.38,3.391,3.29C124.919,37.482,123.499,38.772,121.539,38.762z"/>
		<path fill="#B50000" d="M109.06,29.522c0,2.4,0.029,4.8-0.011,7.2c-0.08,4.96-3.42,8.27-8.359,8.35
			c-4.851,0.08-4.851,0.08-4.851-4.69c0-2.28,0-2.28,2.311-2.13c2.489,0.16,3.41-0.71,3.42-3.24c0.02-4.42,0.029-8.83-0.01-13.25
			c-0.011-0.91,0.189-1.24,1.159-1.19c1.771,0.08,3.551,0.06,5.33,0c0.811-0.03,1.05,0.21,1.03,1.03
			C109.029,24.242,109.06,26.882,109.06,29.522z"/>
		<path fill="#B50000" d="M52.549,21.892c-1.88,0.38-3.76,0.75-5.63,1.17c-0.56,0.13-0.77-0.02-0.84-0.58
			c-0.55-4.15-1.63-8.17-2.96-12.13c-0.35-1.02,0.38-0.7,0.85-0.57c3.04,0.84,5.44,2.56,7.06,5.28c1.11,1.87,1.84,3.89,2.13,6.12
			C53.269,21.622,52.989,21.802,52.549,21.892z"/>
		<path fill="#B50000" d="M77.339,13.672c-0.29-0.83-0.82-1.28-1.68-1.31c-0.96-0.03-1.92-0.07-2.88-0.01
			c-3.34,0.21-6.67,0.65-10.02,0.72c-0.9,0.02-1.53-0.23-2.13-0.87c-3.06-3.28-6.5-6.09-10.49-8.18c-6.77-3.54-13.63-4.31-20.59-0.47
			c-1.84,1.01-1.82,0.94-0.71,2.46c0.49,0.66,0.43,1.04-0.33,1.42c-0.9,0.46-1.66,1.13-2.38,1.85c-0.46,0.46-0.53,0.82-0.01,1.3
			c2.85,2.63,4.82,5.92,6.97,9.1c0.67,0.99,0.62,1.57-0.2,2.43c-5.63,5.94-10.53,12.4-14.02,19.871c-1.33,2.84-1.36,2.96,1.56,3.949
			c0.71,0.24,1.03,0.431,0.65,1.271c-2.06,4.569-4.69,8.79-7.67,12.8c-0.44,0.59-0.73,0.54-1.2,0.02c-2.91-3.199-5.2-6.76-6.57-10.88
			c-0.19-0.59-0.23-1.229-0.79-1.819c-0.65,1.75-0.86,3.479-0.84,5.239c0.03,4.521,1.13,8.811,2.97,12.91c0.4,0.9,0.48,1.5-0.23,2.28
			c-1.39,1.51-2.7,3.11-3.97,4.73c-1.16,1.47-0.99,2.479,0.5,3.67c0.29,0.239,0.61,0.5,0.96,0.609c1.17,0.34,1.61,1.271,1.94,2.3
			c0.28,0.86,0.54,1.73,0.85,2.591c0.53,1.479,1.31,2.77,2.84,3.43c4.63,1.97,9.14,4.2,13.62,6.479c0.71,0.37,1.06,0.28,1.48-0.399
			c1.09-1.771,2.52-3.271,4.02-4.68c7.8-7.29,17.3-11.2,27.46-13.78c0.83-0.21,1.07,0.18,1.35,0.83c2.7,6.2,3.96,12.689,3.93,19.45
			v4.689c0.54-0.1,0.68-0.6,0.92-0.979c1.14-1.771,2.28-3.54,3.37-5.341c6.58-10.83,11.62-22.29,14.17-34.77
			C83.169,42.012,82.309,27.712,77.339,13.672z M16.489,78.752c-1,1.02-1.96,2.09-2.94,3.13c-0.13,0.13-0.3,0.22-0.45,0.34
			c-0.61-0.359-0.69-0.96-0.75-1.489c-0.15-1.461-0.7-2.75-1.44-4c-0.37-0.631-0.82-1.211-1.39-1.58c-1.78-1.17,0.19-1.521,0.47-2.17
			c0.46-1.03,1-0.381,1.49,0.1c1.58,1.53,3.16,3.05,4.76,4.55C16.589,77.962,17.039,78.192,16.489,78.752z M68.599,71.322
			c-0.06,0.12-0.19,0.21-0.34,0.37c-0.6-1.771-1.16-3.5-1.78-5.2c-0.22-0.62,0.01-1.101,0.25-1.641c1.3-2.92,2.2-5.93,1.8-9.18
			c-0.54-4.38-3.04-7.34-6.86-9.3c-0.28-0.15-0.64-0.4-0.91-0.17c-0.29,0.25-0.06,0.63,0.03,0.939c1.25,4.271,0.86,8.351-1.47,12.181
			c-1.96,3.22-4.92,5.31-8.15,7.069c-6.41,3.5-13.2,6.16-19.84,9.15c-4.12,1.86-7.57,4.54-10.05,8.32c-0.8,1.21-1.44,1.449-2.55,0.6
			c-0.18-0.14-0.39-0.24-0.68-0.41c2.52-2.95,5.05-5.819,7.3-8.91c2.11-2.899,4.31-5.76,5.23-9.34c0.44-1.689,0.67-3.38-0.33-5.17
			c-1.24,2.18-2.36,4.33-3.84,6.26c-0.7,0.91-1.42,1.811-2.07,2.75c-0.4,0.601-0.81,0.74-1.42,0.341c-1.76-1.171-3.43-2.44-5.03-3.82
			c-0.54-0.47-0.61-0.86-0.26-1.55c2.55-5.04,5.04-10.11,7.54-15.181c0.74-1.5,1.41-3.029,2.17-4.529c0.36-0.7,0.14-0.95-0.52-1.271
			c-1.66-0.8-1.66-0.86-0.81-2.57c2.48-5.02,6.21-9.07,10.12-12.97c0.71-0.71,1.44-1.4,2.17-2.1c0.23-0.22,0.46-0.57,0.83-0.38
			c0.3,0.15,0.18,0.51,0.19,0.78c0.04,1.58,0.06,3.17,0.1,4.75c0,0.18,0.02,0.38,0.36,0.51c1.39-2.35,2.12-4.94,2.63-7.61
			c0.82-4.34,0.88-8.59-1.68-12.47c-1.64-2.49-3.93-4.27-6.67-5.91c2.62-0.65,5.01-0.76,7.43-0.39c3.58,0.55,6.86,1.75,9.37,4.51
			c1.64,1.8,2.78,3.89,3.15,6.31c0.16,1.04,0.52,1.73,1.62,1.81c3.61,0.26,5.28,2.33,6.09,5.76c1.01,4.31,3.13,8.09,6.52,11.11
			c3.02,2.69,3.82,6.43,4.36,10.22C73.899,54.172,72.349,62.912,68.599,71.322z"/>
	</g> -->

	<g id="Layer_1">
		<path fill="#B50000" d="M116.909,57.002c0.021,0.92-0.26,1.3-1.22,1.26c-1.49-0.05-2.979,0.01-4.46-0.02
			c-0.8-0.01-1.16,0.149-1.15,1.13c0.07,5.89,0.021,11.79,0.07,17.689c0.01,1-0.29,1.341-1.3,1.301c-2.06-0.07-4.13-0.091-6.19,0.01
			c-1.21,0.06-1.399-0.43-1.399-1.49c0.05-5.71-0.01-11.41,0.05-17.12c0.01-1.18-0.29-1.62-1.51-1.529
			c-1.391,0.1-2.79-0.021-4.17,0.029c-0.91,0.04-1.3-0.229-1.27-1.2c0.07-1.92,0.07-3.84,0-5.76c-0.03-0.96,0.33-1.21,1.25-1.2
			c3.351,0.04,6.71,0.021,10.07,0.021c3.3,0,6.61,0.03,9.92-0.021c1-0.02,1.35,0.28,1.31,1.29
			C116.84,53.262,116.85,55.132,116.909,57.002z"/>
		<path fill="#B50000" d="M128.329,57.842c-0.069,3.3-0.109,3.3,3.19,3.3c1.44,0,2.88,0.04,4.32-0.01c0.85-0.03,1.21,0.23,1.17,1.14
			c-0.061,1.341-0.061,2.69,0,4.03c0.05,0.92-0.34,1.13-1.181,1.11c-2.109-0.04-4.22,0.02-6.329-0.03
			c-0.87-0.02-1.15,0.25-1.171,1.14c-0.06,3.2-0.09,3.2,3.12,3.2c1.87,0,3.75,0.03,5.62-0.02c0.82-0.021,1.09,0.29,1.07,1.09
			c-0.05,1.49-0.04,2.97,0,4.46c0.02,0.78-0.22,1.11-1.05,1.1c-5.521-0.02-11.04-0.029-16.561,0.011
			c-1.01,0.01-1.029-0.54-1.029-1.28c0.02-4.271,0.01-8.54,0.01-12.811c0-4.27,0.03-8.539-0.021-12.81
			c-0.02-1.08,0.32-1.38,1.391-1.37c5.319,0.061,10.649,0.05,15.979,0.01c1.021-0.01,1.34,0.32,1.28,1.311
			c-0.07,1.34-0.07,2.689,0,4.03c0.05,0.979-0.24,1.35-1.28,1.319c-2.439-0.06-4.89,0.01-7.34-0.029
			C128.689,56.712,128.35,56.922,128.329,57.842z"/>
		<path fill="#B50000" d="M150.31,64.662c0.32,3.42,2.64,5.88,5.94,6.18c2.699,0.25,5.369,0.09,7.819-1.26
			c0.87-0.48,1.2-0.36,1.16,0.67c-0.05,1.01-0.01,2.02-0.01,3.02v1.591c0,2.55,0.02,2.64-2.521,3.26
			c-5.42,1.34-10.739,1.37-15.62-1.88c-4.779-3.2-7.05-9.41-5.699-15.51c1.239-5.641,5.84-9.99,11.5-10.891
			c3.76-0.6,7.439-0.37,11.06,0.88c0.94,0.32,1.36,0.811,1.311,1.88c-0.101,1.86-0.07,3.74-0.021,5.61c0.03,1.03-0.3,1.13-1.16,0.69
			c-2.899-1.46-5.97-1.811-9.08-0.98C151.92,58.732,150.02,61.612,150.31,64.662z"/>
		<path fill="#B50000" d="M194.909,77.002c0.021,1.1-0.319,1.4-1.39,1.36c-2.11-0.07-4.22-0.051-6.33,0
			c-0.87,0.02-1.18-0.271-1.17-1.15c0.04-2.59-0.01-5.18,0.03-7.78c0.01-0.91-0.271-1.29-1.23-1.26c-2.01,0.05-4.029,0.061-6.05-0.01
			c-0.99-0.03-1.19,0.399-1.18,1.29c0.04,2.54-0.03,5.09,0.04,7.63c0.02,1.03-0.33,1.31-1.32,1.28c-2.16-0.061-4.32-0.051-6.48,0
			c-0.81,0.01-1.09-0.271-1.079-1.08c0.02-8.69,0.01-17.38,0-26.061c0-0.77,0.189-1.13,1.05-1.12c2.25,0.051,4.51,0.051,6.76,0
			c0.84-0.01,1.07,0.311,1.06,1.101c-0.04,2.49,0.021,4.99-0.029,7.49c-0.021,0.909,0.229,1.27,1.2,1.239
			c2.02-0.069,4.029-0.06,6.05,0c0.96,0.03,1.229-0.34,1.21-1.26c-0.05-2.45,0.02-4.89-0.03-7.34c-0.02-0.93,0.271-1.26,1.24-1.23
			c2.06,0.061,4.12,0.07,6.18-0.01c1.11-0.04,1.49,0.26,1.47,1.43c-0.069,4.271-0.029,8.54-0.029,12.811
			C194.88,68.562,194.85,72.782,194.909,77.002z"/>
		<path fill="#222222" d="M196.04,19.922c-0.03,2.03-1.761,3.72-3.801,3.7c-2.069-0.02-3.71-1.7-3.689-3.78
			c0.02-2.05,1.74-3.73,3.779-3.71C194.369,16.162,196.06,17.892,196.04,19.922z"/>
		<path fill="#222222" d="M195.77,42.302c0.021,0.891-0.14,1.271-1.15,1.22c-1.67-0.09-3.35-0.05-5.029-0.01
			c-0.7,0.01-1.021-0.12-1.011-0.93c0.03-5.37,0.021-10.74,0.011-16.11c-0.011-0.61,0.149-0.86,0.8-0.84
			c1.87,0.03,3.74,0.05,5.61-0.01c0.85-0.03,0.75,0.47,0.75,1.01v8.05C195.75,37.222,195.71,39.762,195.77,42.302z"/>
		<path fill="#222222" d="M185.439,42.542c0.01,0.75-0.189,1-0.95,0.97c-1.68-0.05-3.359-0.06-5.029,0
			c-0.86,0.04-1.021-0.279-1.011-1.05c0.04-3.74,0.021-7.48,0.021-11.21c0-3.69,0.03-7.38-0.021-11.07
			c-0.02-0.93,0.21-1.24,1.17-1.19c1.58,0.08,3.16,0.05,4.74,0.01c0.74-0.02,1.09,0.09,1.09,0.98
			C185.409,27.502,185.42,35.022,185.439,42.542z"/>
		<path fill="#222222" d="M176.14,38.272c0.01-0.67,0.08-1.22-0.96-0.99c-0.7,0.16-0.75-0.53-0.75-1.09
			c0.01-1.59,0.01-3.17,0.01-4.75v-3.74c0-2.06,0-2.08-2.12-2.05c-0.99,0.01-2.43-0.47-2.89,0.16c-0.95,1.28-1.521,0.5-2.311,0.09
			c-0.46-0.24-0.949-0.44-1.46-0.57c-5.779-1.46-11.02,2.28-11.609,8.36c-0.36,3.7,0.74,6.95,4.029,8.91
			c3.28,1.95,6.771,2.28,10.131-0.02c0.399-0.28,0.569-0.26,0.93,0.07c1.689,1.529,4.38,1.84,6.42,0.92c0.59-0.271,0.6-0.65,0.6-1.13
			C176.149,41.052,176.13,39.662,176.14,38.272z M164.14,37.762c-1.94-0.01-3.3-1.35-3.271-3.22c0.021-1.86,1.4-3.18,3.33-3.17
			c1.971,0,3.391,1.41,3.36,3.31C167.529,36.502,166.1,37.782,164.14,37.762z"/>
		<path fill="#222222" d="M153.199,25.642c-1.29,2.63-2.51,5.1-3.739,7.57c-1.54,3.13-3.11,6.25-4.61,9.4
			c-0.32,0.649-0.68,0.83-1.38,0.92c-1.93,0.25-2.91-0.46-3.74-2.28c-2.37-5.2-5.01-10.29-7.64-15.61c2.319,0,4.45,0.03,6.58-0.02
			c0.76-0.01,0.819,0.52,1.01,0.99c0.939,2.18,1.87,4.36,2.93,6.85c1.09-2.49,2.07-4.65,2.97-6.85c0.29-0.71,0.62-1.03,1.45-1
			C149.02,25.692,151.02,25.642,153.199,25.642z"/>
		<path fill="#222222" d="M131.54,41.812c-0.12-1.28-0.051-2.58-0.04-3.879c0-0.51-0.08-0.83-0.721-0.67
			c-0.819,0.2-0.989-0.3-0.989-0.97c0.01-1.63,0.01-3.26,0.01-4.89c0-0.72,0.029-1.44-0.01-2.16c-0.08-1.18,0.539-2.74-0.261-3.42
			c-0.67-0.57-2.189-0.2-3.33-0.17c-0.54,0.02-1.279-0.33-1.6,0.26c-0.57,1.06-1.11,0.65-1.78,0.18c-0.55-0.39-1.18-0.62-1.84-0.78
			c-5.93-1.44-11.34,2.66-11.61,8.86c-0.159,3.61,1,6.7,4.23,8.53c3.27,1.85,6.71,2.149,10-0.141c0.33-0.229,0.53-0.319,0.83,0.03
			c1.55,1.75,3.52,1.601,5.57,1.26C131.25,43.652,131.659,43.052,131.54,41.812z M119.52,37.762c-1.94,0-3.31-1.33-3.29-3.19
			c0.01-1.87,1.38-3.2,3.3-3.2c1.98-0.01,3.41,1.38,3.391,3.29C122.899,36.482,121.479,37.772,119.52,37.762z"/>
		<path fill="#222222" d="M107.04,28.522c0,2.4,0.029,4.8-0.011,7.2c-0.08,4.96-3.42,8.27-8.359,8.35
			c-4.851,0.08-4.851,0.08-4.851-4.69c0-2.28,0-2.28,2.31-2.13c2.49,0.16,3.411-0.71,3.42-3.24c0.02-4.42,0.029-8.83-0.01-13.25
			c-0.011-0.91,0.189-1.24,1.159-1.19c1.771,0.08,3.551,0.06,5.33,0c0.811-0.03,1.05,0.21,1.03,1.03
			C107.01,23.242,107.04,25.882,107.04,28.522z"/>
		<path fill="#222222" d="M50.53,20.892c-1.88,0.38-3.76,0.75-5.63,1.17c-0.56,0.13-0.77-0.02-0.84-0.58
			c-0.55-4.15-1.63-8.17-2.96-12.13c-0.35-1.02,0.38-0.7,0.85-0.57c3.04,0.84,5.44,2.56,7.06,5.28c1.11,1.87,1.84,3.89,2.13,6.12
			C51.25,20.622,50.97,20.802,50.53,20.892z"/>
		<path fill="#222222" d="M75.319,12.672c-0.29-0.83-0.82-1.28-1.68-1.31c-0.96-0.03-1.92-0.07-2.88-0.01
			c-3.34,0.21-6.67,0.65-10.02,0.72c-0.9,0.02-1.53-0.23-2.13-0.87c-3.06-3.28-6.5-6.09-10.49-8.18c-6.77-3.54-13.63-4.31-20.59-0.47
			c-1.84,1.01-1.82,0.94-0.71,2.46c0.49,0.66,0.43,1.04-0.33,1.42c-0.9,0.46-1.66,1.13-2.38,1.85c-0.46,0.46-0.53,0.82-0.01,1.3
			c2.85,2.63,4.82,5.92,6.97,9.1c0.67,0.99,0.62,1.57-0.2,2.43c-5.63,5.94-10.53,12.4-14.02,19.87c-1.33,2.84-1.36,2.96,1.56,3.95
			c0.71,0.24,1.03,0.431,0.65,1.271c-2.06,4.569-4.69,8.79-7.67,12.8c-0.44,0.59-0.73,0.54-1.2,0.02c-2.91-3.199-5.2-6.76-6.57-10.88
			c-0.19-0.59-0.23-1.229-0.79-1.819c-0.65,1.75-0.86,3.479-0.84,5.239c0.03,4.521,1.13,8.811,2.97,12.91c0.4,0.9,0.48,1.5-0.23,2.28
			c-1.39,1.51-2.7,3.11-3.97,4.73c-1.16,1.47-0.99,2.479,0.5,3.67c0.29,0.239,0.61,0.5,0.96,0.609c1.17,0.34,1.61,1.271,1.94,2.3
			c0.28,0.86,0.54,1.73,0.85,2.591c0.53,1.479,1.31,2.77,2.84,3.43c4.63,1.97,9.14,4.2,13.62,6.479c0.71,0.37,1.06,0.28,1.48-0.399
			c1.09-1.771,2.52-3.271,4.02-4.68c7.8-7.29,17.3-11.2,27.46-13.78c0.83-0.21,1.07,0.18,1.35,0.83c2.7,6.2,3.96,12.689,3.93,19.45
			v4.689c0.54-0.1,0.68-0.6,0.92-0.979c1.14-1.771,2.28-3.54,3.37-5.341c6.58-10.83,11.62-22.29,14.17-34.77
			C81.149,41.012,80.29,26.712,75.319,12.672z M14.47,77.752c-1,1.02-1.96,2.09-2.94,3.13c-0.13,0.13-0.3,0.22-0.45,0.34
			c-0.61-0.359-0.69-0.96-0.75-1.489c-0.15-1.461-0.7-2.75-1.44-4c-0.37-0.631-0.82-1.211-1.39-1.58c-1.78-1.17,0.19-1.521,0.47-2.17
			c0.46-1.03,1-0.381,1.49,0.1c1.58,1.53,3.16,3.05,4.76,4.55C14.569,76.962,15.02,77.192,14.47,77.752z M66.58,70.322
			c-0.06,0.12-0.19,0.21-0.34,0.37c-0.6-1.771-1.16-3.5-1.78-5.2c-0.22-0.62,0.01-1.101,0.25-1.641c1.3-2.92,2.2-5.93,1.8-9.18
			c-0.54-4.38-3.04-7.34-6.86-9.3c-0.28-0.15-0.64-0.4-0.91-0.17c-0.29,0.25-0.06,0.63,0.03,0.939c1.25,4.271,0.86,8.351-1.47,12.181
			c-1.96,3.22-4.92,5.31-8.15,7.069c-6.41,3.5-13.2,6.16-19.84,9.15c-4.12,1.86-7.57,4.54-10.05,8.32c-0.8,1.21-1.44,1.449-2.55,0.6
			c-0.18-0.14-0.39-0.24-0.68-0.41c2.52-2.95,5.05-5.819,7.3-8.91c2.11-2.899,4.31-5.76,5.23-9.34c0.44-1.689,0.67-3.38-0.33-5.17
			c-1.24,2.18-2.36,4.33-3.84,6.26c-0.7,0.91-1.42,1.811-2.07,2.75c-0.4,0.601-0.81,0.74-1.42,0.341c-1.76-1.171-3.43-2.44-5.03-3.82
			c-0.54-0.47-0.61-0.86-0.26-1.55c2.55-5.04,5.04-10.11,7.54-15.181c0.74-1.5,1.41-3.029,2.17-4.529c0.36-0.7,0.14-0.95-0.52-1.271
			c-1.66-0.8-1.66-0.86-0.81-2.57c2.48-5.02,6.21-9.07,10.12-12.97c0.71-0.71,1.44-1.4,2.17-2.1c0.23-0.22,0.46-0.57,0.83-0.38
			c0.3,0.15,0.18,0.51,0.19,0.78c0.04,1.58,0.06,3.17,0.1,4.75c0,0.18,0.02,0.38,0.36,0.51c1.39-2.35,2.12-4.94,2.63-7.61
			c0.82-4.34,0.88-8.59-1.68-12.47c-1.64-2.49-3.93-4.27-6.67-5.91c2.62-0.65,5.01-0.76,7.43-0.39c3.58,0.55,6.86,1.75,9.37,4.51
			c1.64,1.8,2.78,3.89,3.15,6.31c0.16,1.04,0.52,1.73,1.62,1.81c3.61,0.26,5.28,2.33,6.09,5.76c1.01,4.31,3.13,8.09,6.52,11.11
			c3.02,2.69,3.82,6.43,4.36,10.22C71.879,53.172,70.33,61.912,66.58,70.322z"/>
	</g>
</svg>
