<?xml version="1.0" encoding="utf-8"?>
<!-- Generator: Adobe Illustrator 16.0.0, SVG Export Plug-In . SVG Version: 6.00 Build 0)  -->
<!DOCTYPE svg PUBLIC "-//W3C//DTD SVG 1.1//EN" "http://www.w3.org/Graphics/SVG/1.1/DTD/svg11.dtd">
<svg version="1.1" id="Layer_1" xmlns="http://www.w3.org/2000/svg" xmlns:xlink="http://www.w3.org/1999/xlink" x="0px" y="0px"
	 width="460px" height="460px" viewBox="0 0 460 460" enable-background="new 0 0 460 460" xml:space="preserve">
<g>
	<path fill-rule="evenodd" clip-rule="evenodd" fill="#9E9AA2" d="M137.248,108.826c-0.501,0.9-0.316,1.598-0.317,2.258
		c-0.014,13.164-0.038,26.327,0.028,39.49c0.008,1.551-0.347,2.089-1.944,1.979c-2.068-0.142-4.161-0.134-6.23-0.001
		c-1.494,0.097-1.867-0.373-1.861-1.856c0.057-14.612,0.034-29.224,0.034-43.836c0-5.228,0.033-10.456-0.025-15.683
		c-0.013-1.139,0.267-1.482,1.454-1.5c6.294-0.093,6.299-0.134,10.227,4.817c10.137,12.776,20.267,25.559,30.401,38.337
		c0.411,0.519,0.832,1.029,1.672,1.412c0-0.658,0-1.316,0-1.974c0-13.541,0.02-27.082-0.028-40.624
		c-0.006-1.419,0.255-2.032,1.84-1.919c2.131,0.152,4.285,0.126,6.42,0.007c1.459-0.081,1.909,0.32,1.896,1.851
		c-0.076,9.258-0.038,18.517-0.038,27.775c0,10.455-0.035,20.91,0.038,31.365c0.011,1.526-0.498,1.67-1.872,1.877
		c-4.755,0.715-7.719-1.231-10.627-5.006c-9.682-12.569-19.787-24.813-29.732-37.18C138.19,109.93,137.78,109.46,137.248,108.826z"
		/>
	<path fill-rule="evenodd" clip-rule="evenodd" fill="#9E9AA2" d="M434.582,134.405c0-0.919,0-1.604,0-2.289
		c0-13.479,0.028-26.957-0.038-40.435c-0.009-1.604,0.465-2.039,2.002-1.947c2.134,0.128,4.284,0.104,6.422,0.006
		c1.271-0.058,1.716,0.25,1.713,1.631c-0.047,19.901-0.043,39.804-0.004,59.706c0.002,1.177-0.365,1.318-1.46,1.494
		c-4.921,0.791-8.075-1.117-11.135-5.115c-9.604-12.549-19.697-24.722-29.603-37.038c-0.409-0.509-0.839-0.999-1.337-1.591
		c-0.516,0.884-0.322,1.583-0.322,2.241c-0.014,13.163-0.037,26.327,0.025,39.489c0.007,1.516-0.28,2.124-1.917,2.008
		c-2.068-0.147-4.16-0.125-6.231-0.005c-1.45,0.084-1.896-0.316-1.887-1.838c0.069-11.589,0.038-23.178,0.038-34.767
		c0-8.188,0.025-16.376-0.027-24.563c-0.009-1.259,0.288-1.566,1.613-1.748c4.502-0.616,7.369,1.072,10.163,4.753
		c9.824,12.936,20.079,25.544,30.184,38.267C433.232,133.232,433.551,133.951,434.582,134.405z"/>
	<path fill-rule="evenodd" clip-rule="evenodd" fill="#9E9AA2" d="M153.849,249.967c-2.874,0-5.328-0.066-7.776,0.031
		c-1.143,0.045-1.505-0.67-1.979-1.414c-5.646-8.866-11.312-17.721-16.927-26.606c-0.634-1.003-1.274-1.445-2.527-1.431
		c-6.674,0.077-13.35,0.077-20.022,0.003c-1.382-0.016-1.807,0.285-1.793,1.742c0.075,8.627,0.007,17.253,0.067,25.879
		c0.009,1.365-0.27,1.945-1.751,1.812c-1.499-0.135-3.025-0.111-4.528-0.005c-1.283,0.09-1.794-0.257-1.707-1.634
		c0.119-1.882,0.03-3.776,0.03-5.665c0-23.36,0.024-46.721-0.047-70.081c-0.006-1.879,0.529-2.251,2.304-2.234
		c9.759,0.091,19.548,0.522,29.272-0.062c17.54-1.053,31.157,18.22,23.347,35.951c-2.724,6.183-7.092,10.669-13.735,12.538
		c-1.534,0.433-1.514,0.836-0.741,2.04c5.751,8.951,11.44,17.94,17.146,26.92C152.877,248.374,153.257,249.008,153.849,249.967z
		 M102.86,195.483c0,5.537,0.031,11.074-0.023,16.61c-0.012,1.188,0.238,1.623,1.542,1.612c8.054-0.064,16.107-0.014,24.16-0.045
		c4.946-0.02,8.85-2.151,11.736-6.116c2.929-4.022,4.145-8.566,3.836-13.518c-0.494-7.92-6.806-17.205-17.895-16.682
		c-7.22,0.342-14.468,0.098-21.703,0.034c-1.325-0.011-1.699,0.363-1.683,1.682C102.901,184.535,102.86,190.009,102.86,195.483z"/>
	<path fill-rule="evenodd" clip-rule="evenodd" fill="#9E9AA2" d="M406.948,250.529c-14.747-0.507-25.404-7.674-32.178-20.52
		c-9.62-18.24-4.813-40.562,11.04-52.755c12.762-9.815,29.53-9.9,42.4-0.217c21.922,16.495,21.383,51.411-1.047,67.082
		C421.11,248.351,414.41,250.588,406.948,250.529z M436.563,210.901c-0.146-9.893-3.01-18.035-9.283-24.813
		c-10.13-10.943-26.184-12.093-37.498-2.761c-15.668,12.923-16.06,39.784-0.776,53.151c10.528,9.208,25.124,9.424,35.725,0.299
		C432.807,229.823,436.237,220.658,436.563,210.901z"/>
	<path fill-rule="evenodd" clip-rule="evenodd" fill="#9E9AA2" d="M10.523,120.923c0-9.821,0.029-19.644-0.032-29.465
		c-0.009-1.386,0.292-1.806,1.746-1.787c6.799,0.086,13.601,0.112,20.399,0.024c19.015-0.244,31.561,12.938,30.837,33.016
		c-0.275,7.643-2.408,14.652-7.611,20.444c-5.578,6.209-12.797,9.035-20.968,9.291c-7.675,0.239-15.361,0.029-23.042,0.104
		c-1.348,0.014-1.344-0.614-1.342-1.595C10.532,140.945,10.523,130.935,10.523,120.923z M20.487,121.132
		c0,6.984,0.03,13.969-0.026,20.953c-0.011,1.285,0.306,1.745,1.663,1.712c3.962-0.094,7.934,0.1,11.891-0.084
		c8.332-0.388,14.366-4.359,17.443-12.191c2.678-6.815,2.7-13.825,0.101-20.675C48.959,104,43.875,99.931,36.614,98.8
		c-4.746-0.739-9.552-0.125-14.322-0.359c-1.577-0.077-1.847,0.515-1.834,1.926C20.522,107.288,20.487,114.21,20.487,121.132z"/>
	<path fill-rule="evenodd" clip-rule="evenodd" fill="#9E9AA2" d="M380.56,121.441c-0.258,9.832-3.859,18.211-11.49,24.634
		c-12.122,10.202-29.396,9.045-40.153-2.581c-13.236-14.308-10.89-37.854,4.878-48.929c11.45-8.043,26.501-6.94,36.539,2.798
		C377.078,103.906,380.395,111.979,380.56,121.441z M330.355,120.791c0.12,6.48,1.818,12.04,5.872,16.721
		c6.732,7.778,18.147,8.763,25.937,2.284c10.579-8.798,10.881-27.603,0.59-36.743c-7.226-6.417-17.603-6.441-24.776,0.033
		C332.642,107.901,330.555,114.147,330.355,120.791z"/>
	<path fill-rule="evenodd" clip-rule="evenodd" fill="#9E9AA2" d="M309.384,332.979c0-12.094,0.029-24.187-0.038-36.28
		c-0.009-1.451,0.392-1.748,1.771-1.732c6.928,0.076,13.857-0.021,20.785,0.064c4.454,0.055,8.582,1.25,12.046,4.221
		c2.709,2.322,4.382,5.203,4.433,8.832c0.075,5.289,0.068,10.58,0.073,15.87c0.009,10.268,0.003,20.533,0.002,30.801
		c0,9.725-5.466,15.713-15.279,16.134c-7.545,0.323-15.113,0.07-22.672,0.146c-1.376,0.013-1.119-0.804-1.119-1.587
		C309.384,357.291,309.384,345.135,309.384,332.979z M317.822,332.909c0,10.142-0.002,20.285,0.004,30.427
		c0,0.764-0.299,1.648,1.101,1.617c3.841-0.086,7.694,0.117,11.524-0.109c6.664-0.396,9.552-3.628,9.553-10.309
		c0.001-14.615,0.003-29.23-0.002-43.847c-0.002-5.451-2.412-8.384-7.862-9.321c-3.994-0.689-8.051-0.077-12.066-0.33
		c-1.764-0.111-2.323,0.302-2.302,2.2C317.881,313.127,317.822,323.018,317.822,332.909z"/>
	<path fill-rule="evenodd" clip-rule="evenodd" fill="#9E9AA2" d="M238.035,194.303c0-7.368,0.035-14.737-0.031-22.105
		c-0.012-1.374,0.283-1.946,1.758-1.818c1.5,0.129,3.024,0.103,4.53,0.005c1.269-0.082,1.607,0.39,1.586,1.617
		c-0.069,3.967-0.025,7.936-0.025,11.903c0,8.942-0.004,17.886,0.002,26.829c0.002,4.998,0.514,9.938,1.922,14.748
		c3.444,11.765,12.041,18.13,24.171,17.942c11.923-0.184,20.391-6.892,23.479-18.62c1.325-5.027,1.733-10.165,1.735-15.344
		c0.004-12.345,0.039-24.688-0.041-37.032c-0.012-1.714,0.48-2.208,2.116-2.051c1.436,0.14,2.9,0.11,4.342,0.005
		c1.224-0.09,1.466,0.411,1.463,1.52c-0.045,13.729-0.016,27.459-0.083,41.188c-0.022,4.421-0.702,8.783-1.823,13.065
		c-4.147,15.855-15.408,24.469-31.803,24.333c-17.473-0.144-29.113-10.322-32.215-28.101c-0.945-5.425-1.14-10.885-1.089-16.37
		C238.064,202.112,238.035,198.208,238.035,194.303z"/>
	<path fill-rule="evenodd" clip-rule="evenodd" fill="#9E9AA2" d="M73.729,121.004c0-9.828,0.036-19.656-0.038-29.483
		c-0.012-1.521,0.439-1.847,1.884-1.842c12.914,0.056,25.829,0.063,38.743-0.007c1.557-0.009,1.922,0.477,1.818,1.904
		c-0.118,1.63-0.168,3.289,0.011,4.908c0.195,1.779-0.535,2.035-2.111,2.022c-9.45-0.071-18.9,0.016-28.35-0.081
		c-1.734-0.018-2.077,0.509-2.038,2.118c0.109,4.533,0.11,9.072,0,13.605c-0.04,1.675,0.334,2.248,2.144,2.225
		c8-0.108,16.002-0.005,24.002-0.084c1.578-0.016,2.111,0.428,1.978,1.996c-0.129,1.501-0.128,3.03,0.001,4.53
		c0.12,1.411-0.317,1.798-1.749,1.785c-8.127-0.072-16.255,0.007-24.381-0.071c-1.544-0.015-2.027,0.361-1.994,1.955
		c0.104,5.037,0.104,10.08,0.001,15.117c-0.034,1.663,0.319,2.233,2.132,2.215c9.764-0.101,19.529-0.011,29.294-0.086
		c1.526-0.012,1.947,0.429,1.847,1.893c-0.125,1.819-0.11,3.657-0.001,5.478c0.073,1.227-0.392,1.44-1.503,1.438
		c-13.356-0.035-26.712-0.043-40.067,0.009c-1.345,0.005-1.658-0.385-1.65-1.683C73.752,140.912,73.729,130.958,73.729,121.004z"/>
	<path fill-rule="evenodd" clip-rule="evenodd" fill="#9E9AA2" d="M291.259,153.162c-9.238-0.337-17.084-2.645-24.132-7.507
		c-1.018-0.703-1.289-1.238-0.592-2.382c1.145-1.876,2.162-3.84,3.095-5.831c0.534-1.143,0.884-1.098,1.849-0.372
		c6.677,5.025,14.204,7.45,22.584,7.053c2.216-0.105,4.374-0.556,6.344-1.642c4.588-2.532,5.093-8.599,0.984-11.854
		c-2.161-1.713-4.712-2.635-7.309-3.41c-4.337-1.293-8.691-2.524-13.034-3.794c-0.602-0.176-1.186-0.417-1.773-0.635
		c-6.021-2.217-10.479-5.849-10.975-12.75c-0.518-7.226,2.014-13.123,8.254-17.079c5.636-3.573,11.954-4.084,18.392-3.497
		c5.881,0.536,11.172,2.807,16.123,5.961c1.006,0.641,1.206,1.185,0.551,2.239c-1.129,1.816-2.154,3.702-3.126,5.609
		c-0.52,1.022-0.885,0.979-1.769,0.313c-6.087-4.593-12.935-6.31-20.466-5.07c-5.118,0.842-7.958,4.269-7.646,8.908
		c0.181,2.666,1.577,4.429,3.805,5.684c2.778,1.564,5.863,2.245,8.9,3.046c4.01,1.057,8.063,1.97,11.936,3.486
		c8.526,3.339,12.124,8.738,11.472,17.162c-0.611,7.895-5.708,13.433-14.09,15.344C297.301,152.906,293.927,153.202,291.259,153.162
		z"/>
	<path fill-rule="evenodd" clip-rule="evenodd" fill="#9E9AA2" d="M83.161,249.952c-2.377,0-4.76-0.047-7.141,0.021
		c-1.076,0.03-1.168-0.74-1.445-1.409c-3.009-7.261-6.049-14.507-8.986-21.796c-0.533-1.324-1.206-1.727-2.617-1.718
		c-10.709,0.065-21.419,0.059-32.128,0.005c-1.277-0.007-1.86,0.374-2.339,1.57c-2.925,7.301-5.974,14.553-8.901,21.852
		c-0.442,1.102-0.935,1.565-2.156,1.506c-2.188-0.106-4.386-0.029-6.56-0.029c-0.229-0.802,0.224-1.323,0.456-1.879
		c10.555-25.26,21.135-50.508,31.655-75.781c0.6-1.438,1.304-1.969,2.888-1.929c4.556,0.116,4.559,0.038,6.275,4.171
		c10.15,24.446,20.302,48.893,30.439,73.345C82.857,248.498,83.313,249.08,83.161,249.952z M63.05,218.916
		c-5.308-13.038-10.527-25.859-15.736-38.656c-0.709,0.131-0.724,0.654-0.88,1.032c-4.993,12.038-9.957,24.089-14.982,36.115
		c-0.586,1.402-0.12,1.54,1.126,1.529c5.354-0.048,10.706-0.021,16.059-0.021C53.343,218.916,58.049,218.916,63.05,218.916z"/>
	<path fill-rule="evenodd" clip-rule="evenodd" fill="#9E9AA2" d="M231.071,249.967c-2.56,0-4.939-0.053-7.315,0.024
		c-1.083,0.034-1.171-0.723-1.449-1.393c-3.01-7.26-6.05-14.508-8.997-21.792c-0.525-1.3-1.17-1.768-2.606-1.759
		c-10.705,0.069-21.411,0.068-32.116,0c-1.378-0.009-1.935,0.476-2.419,1.683c-2.899,7.23-5.92,14.413-8.805,21.649
		c-0.505,1.266-1.136,1.71-2.459,1.616c-1.629-0.117-3.278-0.113-4.908-0.003c-1.533,0.103-1.645-0.369-1.091-1.671
		c3.177-7.463,6.291-14.95,9.418-22.435c7.486-17.917,14.981-35.83,22.421-53.768c0.543-1.308,1.202-1.775,2.628-1.75
		c4.733,0.081,4.739,0.019,6.538,4.345c10.139,24.388,20.274,48.777,30.406,73.168C230.577,248.508,230.779,249.157,231.071,249.967
		z M178.574,218.85c0.691,0.03,1.118,0.064,1.544,0.064c9.561,0.003,19.122-0.031,28.683,0.034c1.655,0.011,1.862-0.333,1.236-1.85
		c-4.87-11.8-9.663-23.631-14.494-35.446c-0.205-0.503-0.255-1.126-0.975-1.507C189.252,193.01,183.945,205.852,178.574,218.85z"/>
	<path fill-rule="evenodd" clip-rule="evenodd" fill="#9E9AA2" d="M403.837,294.998c2.611,0,5.061,0.038,7.509-0.016
		c1.367-0.03,1.048,1.081,1.177,1.726c1.469,7.339,2.872,14.691,4.292,22.04c2.314,11.98,4.633,23.962,6.932,35.945
		c0.222,1.152,0.313,2.331,0.464,3.488c2.627-13.594,5.253-27.188,7.884-40.783c1.352-6.978,2.747-13.948,4.039-20.937
		c0.216-1.166,0.618-1.543,1.792-1.492c2.188,0.095,4.385,0.027,6.661,0.027c-3.291,15.31-6.547,30.435-9.794,45.563
		c-2.072,9.651-4.158,19.302-6.165,28.968c-0.293,1.413-0.784,2.025-2.312,1.868c-1.559-0.158-3.151-0.117-4.719-0.007
		c-1.128,0.08-1.51-0.36-1.73-1.4c-2.622-12.365-5.288-24.722-7.934-37.082C409.249,320.363,406.575,307.818,403.837,294.998z"/>
	<path fill-rule="evenodd" clip-rule="evenodd" fill="#9E9AA2" d="M355.979,198.619c-0.076,8.733,0.293,18.438-0.772,28.106
		c-0.388,3.517-1.037,6.967-2.262,10.298c-2.977,8.105-8.756,12.676-17.307,13.769c-7.483,0.955-14.685,0.283-21.409-3.502
		c-1.311-0.737-1.639-1.465-0.984-2.821c0.65-1.35,0.751-3.37,1.772-4.016c0.969-0.609,2.466,1.002,3.779,1.536
		c4.853,1.975,9.874,2.498,15.019,1.821c5.603-0.737,9.439-3.798,11.567-9.061c1.877-4.642,2.31-9.532,2.479-14.437
		c0.472-13.533,0.131-27.075,0.263-40.612c0.013-1.432-0.757-1.281-1.656-1.281c-9.382,0.007-18.766-0.029-28.148,0.037
		c-1.529,0.012-2.172-0.335-2.016-1.963c0.139-1.436,0.124-2.902,0.002-4.34c-0.116-1.386,0.438-1.654,1.71-1.644
		c6.863,0.058,13.728,0.053,20.592,0.019c5.031-0.024,10.063-0.054,15.091-0.234c1.777-0.064,2.353,0.352,2.328,2.24
		C355.916,180.908,355.979,189.284,355.979,198.619z"/>
	<path fill-rule="evenodd" clip-rule="evenodd" fill="#9E9AA2" d="M363.35,332.827c0-12.032,0.023-24.065-0.032-36.097
		c-0.007-1.367,0.254-1.784,1.718-1.771c9.135,0.079,18.27,0.065,27.404,0.011c1.281-0.009,1.705,0.25,1.687,1.624
		c-0.061,4.477,0.003,4.478-4.477,4.478c-5.418,0-10.836,0.023-16.254-0.02c-1.104-0.008-1.663,0.093-1.651,1.474
		c0.071,8.505,0.065,17.01,0.003,25.514c-0.01,1.256,0.443,1.415,1.519,1.406c5.732-0.045,11.466,0.02,17.197-0.053
		c1.323-0.016,1.694,0.34,1.683,1.673c-0.035,4.455,0.02,4.456-4.348,4.456c-4.787,0-9.576,0.047-14.362-0.031
		c-1.311-0.021-1.697,0.313-1.688,1.659c0.062,8.755,0.06,17.514,0,26.269c-0.009,1.27,0.37,1.549,1.575,1.538
		c6.488-0.057,12.977,0.006,19.466-0.055c1.259-0.013,1.727,0.222,1.71,1.616c-0.052,4.49,0.013,4.49-4.485,4.49
		c-8.314,0-16.632-0.036-24.946,0.035c-1.4,0.013-1.762-0.313-1.755-1.74C363.378,357.146,363.35,344.986,363.35,332.827z"/>
	<path fill-rule="evenodd" clip-rule="evenodd" fill="#9E9AA2" d="M375.344,271.186c24.002,0,48.005,0.017,72.007-0.04
		c1.567-0.004,2.098,0.346,1.926,1.934c-0.168,1.551,0.517,3.658-0.271,4.559c-0.918,1.049-3.066,0.341-4.675,0.341
		c-46.935,0.018-93.868,0.004-140.803,0.055c-1.706,0.002-2.349-0.397-2.101-2.123c0.22-1.532-0.68-3.602,0.361-4.492
		c0.884-0.753,2.88-0.229,4.383-0.229C329.229,271.184,352.286,271.186,375.344,271.186z"/>
	<path fill-rule="evenodd" clip-rule="evenodd" fill="#9E9AA2" d="M218.886,121.094c0-9.886,0.033-19.771-0.035-29.657
		c-0.01-1.428,0.361-1.841,1.774-1.758c2.134,0.125,4.287,0.145,6.418-0.005c1.563-0.109,1.835,0.473,1.831,1.897
		c-0.047,16.623,0.004,33.246-0.076,49.869c-0.01,1.89,0.414,2.403,2.354,2.381c9.885-0.111,19.771-0.021,29.656-0.086
		c1.429-0.01,1.866,0.374,1.766,1.788c-0.125,1.754-0.135,3.532,0.003,5.284c0.114,1.449-0.378,1.762-1.771,1.756
		c-11.648-0.059-23.298-0.033-34.946-0.033c-1.638,0-3.289-0.14-4.907,0.036c-1.834,0.2-2.113-0.563-2.102-2.193
		C218.923,140.614,218.886,130.854,218.886,121.094z"/>
	<path fill-rule="evenodd" clip-rule="evenodd" fill="#9E9AA2" d="M204.711,121.116c0,9.888-0.029,19.774,0.033,29.661
		c0.008,1.381-0.281,1.879-1.742,1.787c-2.132-0.135-4.286-0.137-6.419,0c-1.518,0.098-1.851-0.414-1.847-1.873
		c0.052-17.633,0.033-35.266,0.033-52.898c0-2.268,0.044-4.536-0.02-6.802c-0.026-0.97,0.245-1.327,1.257-1.3
		c2.392,0.063,4.789,0.089,7.178-0.009c1.261-0.052,1.56,0.365,1.554,1.584C204.69,101.217,204.711,111.167,204.711,121.116z"/>
</g>
</svg>