<?xml version="1.0" encoding="utf-8"?>
<!-- Generator: Adobe Illustrator 16.0.0, SVG Export Plug-In . SVG Version: 6.00 Build 0)  -->
<!DOCTYPE svg PUBLIC "-//W3C//DTD SVG 1.1//EN" "http://www.w3.org/Graphics/SVG/1.1/DTD/svg11.dtd">
<svg version="1.1" id="Layer_1" xmlns="http://www.w3.org/2000/svg" xmlns:xlink="http://www.w3.org/1999/xlink" x="0px" y="0px"
	 width="452.059px" height="149.283px" viewBox="0 0 452.059 149.283" enable-background="new 0 0 452.059 149.283"
	 xml:space="preserve">
<g>
	<path fill-rule="evenodd" clip-rule="evenodd" fill="#FFFFFF" d="M144.449-1.188c2.408,0.499,4.833,0.93,7.222,1.506
		c18.282,4.411,32.511,20.202,35.02,38.838c1.121,8.326,0.06,16.381-3.061,24.172c-0.231,0.578-0.501,1.141-0.77,1.703
		c-0.103,0.214-0.254,0.405-0.41,0.648c-1.125-1.058-2.15-2.148-3.303-3.083c-3.066-2.485-6.679-3.491-10.557-3.518
		c-1.276-0.009-2.161-0.422-3.142-1.222c-3.945-3.217-8.489-4.539-13.534-3.551c-0.984,0.193-1.629,0.031-2.396-0.458
		c-3.223-2.057-6.767-3.039-10.582-2.797c-1.188,0.075-0.831-0.661-0.834-1.165c-0.026-4.489-0.016-8.978-0.016-13.467
		c0-8.404-4.666-14.338-12.81-16.513c-7.37-1.968-16.145,3.374-18.257,10.754c-0.756,2.643-1.105,5.324-1.082,8.086
		c0.06,7.232,0.001,14.464,0.037,21.696c0.006,1.274-0.143,1.686-1.659,1.353c-8.712-1.915-17.944,4.089-19.703,13.061
		c-0.023,0.122-0.04,0.247-0.043,0.371c-0.058,2.224-0.855,3.559-3.417,3.088c-0.832-0.153-1.469,0.488-2.082,1.064
		c-9.865,9.273-21.63,13.71-35.091,12.894C21.417,90.905,4.146,74.164,0.677,53.465C0.53,52.586,0.653,51.594,0,50.829
		c0-3.119,0-6.237,0-9.356c0.574-0.701,0.305-1.556,0.412-2.337C2.977,20.378,17.167,4.747,35.624,0.249
		c2.213-0.54,4.542-0.509,6.663-1.437C76.341-1.188,110.396-1.188,144.449-1.188z M31.284,52.659c2.182,0,4.368,0.077,6.544-0.027
		c1.422-0.068,1.956,0.298,1.917,1.84c-0.107,4.299-0.062,8.603-0.026,12.904c0.021,2.472,1.504,3.939,3.972,3.986
		c1.932,0.037,3.865,0.019,5.798,0.006c2.945-0.02,4.344-1.414,4.354-4.365c0.014-4.177,0.076-8.356-0.034-12.53
		c-0.04-1.541,0.497-1.871,1.916-1.843c4.238,0.082,8.479,0.048,12.717,0.021c2.598-0.017,4.063-1.475,4.109-4.042
		c0.03-1.683,0.008-3.366,0.006-5.05c-0.005-3.715-1.22-4.963-4.902-4.979c-4.052-0.017-8.105-0.052-12.156,0.023
		c-1.329,0.025-1.7-0.419-1.679-1.71c0.069-4.238,0.045-8.478,0.018-12.717c-0.018-2.775-1.303-4.15-4.07-4.289
		c-1.803-0.09-3.615-0.044-5.422-0.017c-3.351,0.051-4.628,1.346-4.636,4.68c-0.009,3.927-0.097,7.858,0.04,11.781
		c0.063,1.792-0.427,2.353-2.257,2.289c-3.985-0.141-7.979-0.077-11.968-0.033c-3.222,0.036-4.51,1.384-4.526,4.597
		c-0.01,1.808-0.026,3.616,0.004,5.423c0.043,2.566,1.511,4.011,4.108,4.044C27.169,52.68,29.227,52.659,31.284,52.659z
		 M154.311,43.343c6.418,0.019,11.721-5.168,11.796-11.538c0.076-6.381-5.266-11.823-11.686-11.906
		c-6.312-0.082-11.794,5.4-11.798,11.794C142.62,38.045,147.917,43.325,154.311,43.343z"/>
	<path fill-rule="evenodd" clip-rule="evenodd" fill="#FFFFFF" d="M392.558-1.188c0.563,0.686,1.396,0.371,2.091,0.529
		c8.624,1.958,14.918,9.296,15.569,18.116c0.138,1.868,0.174,3.73,0.224,5.597c0.03,1.153-0.453,1.53-1.559,1.514
		c-3.055-0.043-6.111-0.054-9.166,0.004c-1.257,0.023-1.633-0.501-1.571-1.681c0.071-1.368,0.063-2.746-0.006-4.114
		c-0.216-4.263-3.664-7.635-7.721-7.602c-4.127,0.034-7.224,3.211-7.245,7.679c-0.053,10.974-0.057,21.948,0.016,32.921
		c0.021,3.171,1.519,5.662,4.467,7c2.6,1.18,5.166,0.841,7.349-1.017c2.147-1.829,3.161-4.247,3.165-7.099
		c0.006-4.716,0.027-4.716,4.77-4.716c2.058,0,4.115,0.006,6.173-0.002c0.728-0.002,1.336,0.006,1.388,1.024
		c0.371,7.306-0.898,14.03-6.546,19.303c-5.482,5.12-11.917,6.719-19.005,4.583c-7.319-2.204-11.753-7.417-13.716-14.771
		c-0.489-1.834-0.459-3.704-0.458-5.57c0.008-10.288,0.175-20.578,0.009-30.863c-0.173-10.638,7.747-19.375,17.047-20.491
		c0.214-0.026,0.407-0.227,0.61-0.346C389.813-1.188,391.186-1.188,392.558-1.188z"/>
	<path fill-rule="evenodd" clip-rule="evenodd" fill="#FFFFFF" d="M452.059,12.284c-3.866,0.018-7.734,0.12-11.598,0.017
		c-1.706-0.045-2.251,0.434-2.214,2.188c0.379,17.892,0.223,35.788,0.272,53.683c0.007,2.491,0,2.491-2.533,2.491
		c-2.619,0-5.243-0.096-7.856,0.036c-1.596,0.081-1.961-0.47-1.956-1.997c0.055-14.905,0.032-29.812,0.032-44.717
		c0-3.181-0.08-6.364,0.034-9.541c0.058-1.601-0.351-2.213-2.062-2.144c-3.301,0.132-6.612-0.04-9.914,0.073
		c-1.535,0.053-1.921-0.488-1.86-1.93c0.115-2.74,0.159-5.491,0.042-8.229c-0.074-1.718,0.461-2.233,2.205-2.223
		c11.85,0.073,23.699,0.04,35.549,0.035c0.62,0,1.239-0.059,1.858-0.09C452.059,4.051,452.059,8.168,452.059,12.284z"/>
	<path fill-rule="evenodd" clip-rule="evenodd" fill="#FFFFFF" d="M111.533,71.104c0-1.601,0-2.836,0-4.071
		c0-10.287-0.019-20.573,0.008-30.86c0.017-6.301,5.042-11.336,11.065-11.165c4.957,0.142,9.813,4.941,9.865,9.922
		c0.076,7.293,0.032,14.588,0.039,21.882c0,0.677,0,1.354,0,2.241c1.795-0.766,3.234-1.84,4.983-2.255
		c4.2-0.997,7.723,0.383,10.854,3.032c0.79,0.668,1.287,0.923,2.358,0.476c4.446-1.86,9.108-0.776,12.336,2.956
		c1.038,1.2,2.058,1.518,3.512,1.396c3.088-0.258,6.053,0.045,8.736,1.892c3.351,2.306,4.887,5.75,5.375,9.47
		c1.328,10.121,0.774,19.992-4.855,29.036c-1.91,3.068-3.027,6.538-3.665,10.134c-0.597,3.367-2.808,5.202-6.261,5.205
		c-13.341,0.013-26.683,0.048-40.024-0.019c-4.749-0.023-8.401-2.145-10.525-6.488c-3.344-6.837-6.874-13.558-11.604-19.566
		c-2.169-2.755-4.53-5.247-7.812-6.787c-4.691-2.2-6.647-5.929-6.093-11.081c0.416-3.862,4.323-8.059,8.359-9.151
		c4-1.083,7.461,0.231,10.813,2.188C109.739,69.925,110.451,70.414,111.533,71.104z"/>
	<path fill-rule="evenodd" clip-rule="evenodd" fill="#FFFFFF" d="M304.961,97.127c0,4.217,0.004,8.433,0,12.649
		c-0.011,12.161-0.062,24.323,0.004,36.484c0.01,1.826-0.531,2.37-2.323,2.278c-2.799-0.144-5.612-0.084-8.417-0.016
		c-1.171,0.028-1.643-0.259-1.639-1.543c0.062-22.515,0.088-45.029,0.088-67.544c0-1.27,0.514-1.604,1.677-1.585
		c3.118,0.048,6.24,0.101,9.354-0.019c1.627-0.063,2.648,0.483,3.541,1.838c2.364,3.591,4.904,7.065,7.28,10.648
		c0.806,1.214,1.258,1.02,1.965-0.023c2.446-3.611,4.98-7.165,7.391-10.8c0.771-1.163,1.616-1.706,3.049-1.659
		c3.053,0.099,6.114,0.107,9.166-0.001c1.654-0.059,2.248,0.362,2.243,2.163c-0.044,17.587-0.001,35.175,0.047,52.763
		c0.013,4.61,0.093,9.223,0.226,13.831c0.041,1.436-0.356,2.003-1.892,1.941c-2.927-0.115-5.863-0.095-8.792-0.006
		c-1.316,0.04-1.698-0.385-1.688-1.689c0.052-6.797,0.042-13.596,0.006-20.394c-0.051-9.413-0.143-18.826-0.229-28.239
		c-0.003-0.341,0.157-0.734-0.339-1.172c-1.566,2.252-3.116,4.476-4.661,6.703c-1.491,2.151-3.061,4.254-4.437,6.477
		c-0.932,1.505-1.402,1.187-2.238-0.071c-2.929-4.408-5.953-8.753-8.94-13.121C305.255,97.057,305.108,97.092,304.961,97.127z"/>
	<path fill-rule="evenodd" clip-rule="evenodd" fill="#FFFFFF" d="M202.747,113.154c0.001-5.487-0.039-10.975,0.01-16.46
		c0.084-9.417,6.436-17.294,15.586-19.412c11.579-2.68,23.137,5.971,23.825,17.842c0.101,1.74,0.129,3.483,0.242,5.222
		c0.079,1.227-0.275,1.818-1.661,1.779c-3.053-0.088-6.11-0.068-9.164-0.006c-1.125,0.022-1.559-0.312-1.518-1.477
		c0.051-1.425,0.06-2.851-0.179-4.284c-0.798-4.796-3.688-7.559-7.849-7.38c-3.757,0.161-7.067,3.647-7.119,8.043
		c-0.125,10.66-0.112,21.323-0.005,31.983c0.039,3.887,2.281,6.913,5.282,7.862c5.068,1.601,9.638-2.014,9.889-7.825
		c0.21-4.856,0.21-4.843-4.621-4.862c-3.333-0.013-3.106,0.477-3.112-3.096c-0.004-2.557,0.04-5.114-0.018-7.669
		c-0.027-1.214,0.418-1.628,1.638-1.618c5.611,0.05,11.223,0.053,16.834-0.001c1.258-0.013,1.631,0.469,1.604,1.646
		c-0.14,6.104,0.193,12.211-0.262,18.314c-0.612,8.227-8.151,16.187-16.267,17.527c-11.307,1.869-21.097-6.137-22.906-16.317
		c-0.417-2.345-0.216-4.727-0.228-7.093C202.73,121.634,202.745,117.394,202.747,113.154z"/>
	<path fill-rule="evenodd" clip-rule="evenodd" fill="#FFFFFF" d="M234.708,27.906c-1.372,0.001-2.748-0.069-4.114,0.02
		c-1.42,0.093-2.037-0.33-1.96-1.881c0.113-2.3,0.034-4.613-0.01-6.919c-0.09-4.721-3.238-8.02-7.589-7.991
		c-4.266,0.028-7.365,3.506-7.438,8.153c-0.063,4.059,1.826,6.902,5.225,8.829c3.901,2.211,7.907,4.241,11.78,6.5
		c6.942,4.049,10.881,9.82,10.397,18.211c-0.576,10.019-8.545,18.113-18.827,18.892c-9.373,0.71-18.646-6.633-20.512-16.16
		c-0.535-2.73-0.259-5.465-0.375-8.198c-0.042-0.981,0.432-1.326,1.352-1.321c3.18,0.015,6.36,0.024,9.54-0.008
		c1.035-0.011,1.477,0.395,1.446,1.437c-0.04,1.371-0.028,2.743-0.001,4.115c0.086,4.363,3.54,7.896,7.634,7.828
		c4.036-0.067,7.448-3.809,7.411-8.105c-0.019-2.184-1.083-3.833-2.766-5.043c-3.65-2.626-7.706-4.578-11.625-6.751
		c-4.208-2.334-8.034-5.064-10.306-9.461c-6.828-13.215-0.087-28.017,13.908-30.707c10.521-2.022,21.532,6.111,22.805,16.827
		c0.407,3.428,0.138,6.847,0.286,10.267c0.053,1.197-0.522,1.508-1.586,1.479C237.826,27.874,236.267,27.906,234.708,27.906z"/>
	<path fill-rule="evenodd" clip-rule="evenodd" fill="#FFFFFF" d="M266.09,77.867c2.059,0,4.119,0.059,6.174-0.021
		c1.252-0.048,1.796,0.464,1.999,1.655c2.754,16.121,5.524,32.238,8.305,48.354c1.046,6.066,2.112,12.13,3.198,18.189
		c0.426,2.374,0.395,2.454-1.94,2.457c-2.682,0.004-5.369-0.098-8.043,0.047c-1.486,0.08-1.975-0.533-2.136-1.839
		c-0.205-1.665-0.541-3.314-0.732-4.981c-0.101-0.886-0.51-1.112-1.338-1.105c-3.804,0.032-7.608,0.035-11.412-0.001
		c-0.859-0.009-1.209,0.279-1.304,1.139c-0.186,1.668-0.487,3.322-0.712,4.985c-0.159,1.179-0.54,1.869-1.989,1.803
		c-2.863-0.132-5.74-0.134-8.604-0.002c-1.647,0.075-1.897-0.608-1.646-1.977c1.036-5.626,2.048-11.258,3.067-16.887
		c2.827-15.603,5.654-31.205,8.482-46.807c0.078-0.428,0.182-0.852,0.266-1.278c0.734-3.73,0.734-3.73,4.436-3.73
		C263.471,77.867,264.78,77.867,266.09,77.867z M266.187,98.782c-0.085,0.031-0.171,0.063-0.256,0.095
		c-0.748,4.79-1.484,9.584-2.248,14.372c-0.794,4.974-1.603,9.944-2.435,14.912c-0.2,1.197,0.125,1.697,1.431,1.633
		c1.928-0.096,3.864-0.022,5.798-0.025c2.356-0.003,2.321-0.011,1.979-2.292c-0.994-6.642-1.941-13.29-2.921-19.934
		C267.104,104.62,266.638,101.702,266.187,98.782z"/>
	<path fill-rule="evenodd" clip-rule="evenodd" fill="#FFFFFF" d="M248.115,35.386c0-11.102,0.036-22.204-0.038-33.305
		c-0.012-1.691,0.53-2.096,2.136-2.085c9.791,0.065,19.583,0.062,29.375,0.001c1.472-0.009,1.957,0.394,1.9,1.889
		c-0.11,2.927-0.094,5.863-0.006,8.792c0.041,1.323-0.399,1.7-1.699,1.687c-5.8-0.061-11.601,0.021-17.399-0.058
		c-1.499-0.021-2.077,0.315-2.029,1.938c0.115,3.988,0.096,7.984,0.007,11.973c-0.032,1.45,0.357,1.936,1.871,1.912
		c5.612-0.087,11.226-0.036,16.839-0.034c2.371,0,2.35,0.002,2.396,2.458c0.049,2.553,0.039,5.114,0.255,7.655
		c0.16,1.88-0.562,2.268-2.308,2.235c-5.674-0.106-11.351,0.007-17.025-0.071c-1.489-0.021-2.073,0.3-2.036,1.932
		c0.108,4.738,0.093,9.48,0.005,14.219c-0.026,1.443,0.461,1.779,1.822,1.763c5.861-0.066,11.726,0.028,17.587-0.065
		c1.606-0.025,2.014,0.51,1.958,2.026c-0.107,2.927-0.063,5.862-0.017,8.792c0.019,1.169-0.334,1.657-1.599,1.653
		c-10.167-0.041-20.333-0.051-30.499,0.008c-1.48,0.009-1.552-0.687-1.549-1.823c0.025-11.164,0.016-22.328,0.016-33.492
		C248.09,35.386,248.103,35.386,248.115,35.386z"/>
	<path fill-rule="evenodd" clip-rule="evenodd" fill="#FFFFFF" d="M330.818,35.309c0-11.102,0.028-22.203-0.033-33.305
		c-0.009-1.575,0.486-2.013,2.021-2.004c9.854,0.057,19.708,0.053,29.563,0.002c1.363-0.007,1.874,0.334,1.822,1.774
		c-0.106,2.928-0.101,5.864-0.002,8.792c0.047,1.39-0.365,1.82-1.779,1.802c-5.736-0.076-11.477,0.046-17.212-0.077
		c-1.796-0.039-2.187,0.557-2.139,2.216c0.112,3.801,0.112,7.61,0.001,11.411c-0.049,1.662,0.354,2.257,2.142,2.22
		c5.673-0.12,11.352,0.013,17.025-0.081c1.594-0.026,2,0.487,1.971,2.014c-0.053,2.799,0.041,5.608,0.227,8.404
		c0.107,1.611-0.492,1.982-2.01,1.961c-5.8-0.08-11.602,0.026-17.4-0.07c-1.605-0.026-1.981,0.499-1.952,2.016
		c0.09,4.738,0.075,9.48,0.006,14.219c-0.02,1.323,0.414,1.695,1.707,1.682c5.924-0.058,11.85,0.024,17.774-0.06
		c1.512-0.021,1.932,0.457,1.878,1.915c-0.103,2.803-0.108,5.615,0.001,8.417c0.062,1.587-0.354,2.167-2.067,2.153
		c-9.916-0.081-19.833-0.073-29.75-0.003c-1.521,0.011-1.866-0.468-1.859-1.907c0.054-11.164,0.029-22.328,0.029-33.492
		C330.793,35.309,330.806,35.309,330.818,35.309z"/>
	<path fill-rule="evenodd" clip-rule="evenodd" fill="#FFFFFF" d="M346.909,113.097c0-11.039,0.031-22.078-0.034-33.117
		c-0.009-1.607,0.383-2.162,2.071-2.148c9.791,0.074,19.584,0.071,29.375,0c1.598-0.012,2.021,0.494,1.961,2.02
		c-0.111,2.802-0.127,5.616,0.004,8.417c0.076,1.621-0.518,1.963-2.021,1.941c-5.736-0.08-11.476,0.015-17.212-0.064
		c-1.465-0.021-1.938,0.377-1.9,1.877c0.1,4.051,0.091,8.107,0.003,12.16c-0.031,1.419,0.431,1.798,1.811,1.781
		c5.8-0.069,11.601,0.015,17.4-0.06c1.445-0.019,1.956,0.345,1.925,1.868c-0.06,2.861,0.056,5.731,0.221,8.591
		c0.084,1.461-0.353,1.938-1.866,1.915c-5.862-0.085-11.726,0.011-17.587-0.065c-1.455-0.02-1.938,0.36-1.907,1.87
		c0.096,4.612,0.102,9.23-0.001,13.844c-0.037,1.656,0.341,2.255,2.138,2.217c5.797-0.123,11.6-0.008,17.398-0.074
		c1.362-0.016,1.882,0.325,1.833,1.769c-0.103,2.99-0.077,5.987-0.011,8.979c0.029,1.299-0.423,1.716-1.731,1.71
		c-10.103-0.046-20.207-0.062-30.31,0.012c-1.628,0.012-1.611-0.786-1.608-1.95c0.021-11.164,0.013-22.328,0.013-33.491
		C346.885,113.097,346.896,113.097,346.909,113.097z"/>
	<path fill-rule="evenodd" clip-rule="evenodd" fill="#FFFFFF" d="M144.994,124.177c7.414,0,14.828-0.005,22.242,0.002
		c4.104,0.003,6.39,2.26,6.4,6.313c0.009,3.489,0.018,6.978-0.002,10.467c-0.022,3.735-2.332,6.037-6.095,6.04
		c-14.953,0.012-29.905,0.012-44.858,0.001c-3.94-0.003-6.242-2.332-6.262-6.301c-0.017-3.427-0.02-6.854,0-10.28
		c0.024-3.907,2.383-6.232,6.332-6.238C130.166,124.169,137.58,124.177,144.994,124.177z M162.145,140.312
		c2.778,0.018,4.744-1.9,4.765-4.646c0.02-2.696-1.964-4.719-4.677-4.765c-2.746-0.047-4.719,1.896-4.731,4.66
		C157.49,138.343,159.397,140.294,162.145,140.312z"/>
	<path fill-rule="evenodd" clip-rule="evenodd" fill="#FFFFFF" d="M290.776,35.408c0-11.094,0.031-22.188-0.035-33.282
		c-0.01-1.633,0.437-2.205,2.101-2.13c2.737,0.122,5.487,0.128,8.224-0.001c1.703-0.081,2.074,0.559,2.068,2.156
		c-0.067,17.888-0.064,35.775-0.081,53.664c-0.002,2.443-0.006,2.444,2.385,2.444c5.734,0.001,11.469,0.041,17.202-0.028
		c1.384-0.017,1.857,0.368,1.812,1.787c-0.1,3.051-0.07,6.108-0.011,9.161c0.021,1.137-0.362,1.516-1.505,1.512
		c-10.222-0.033-20.443-0.046-30.665,0.012c-1.48,0.008-1.55-0.688-1.547-1.823c0.025-11.157,0.016-22.313,0.016-33.47
		C290.751,35.408,290.764,35.408,290.776,35.408z"/>
</g>
</svg>
