<?xml version="1.0" encoding="utf-8"?>
<!-- Generator: Adobe Illustrator 16.0.0, SVG Export Plug-In . SVG Version: 6.00 Build 0)  -->
<!DOCTYPE svg PUBLIC "-//W3C//DTD SVG 1.1//EN" "http://www.w3.org/Graphics/SVG/1.1/DTD/svg11.dtd">
<svg version="1.1" id="Layer_1" xmlns="http://www.w3.org/2000/svg" xmlns:xlink="http://www.w3.org/1999/xlink" x="0px" y="0px"
	 width="200px" height="200px" viewBox="0 0 200 200" enable-background="new 0 0 200 200" xml:space="preserve">
<!-- <path fill-rule="evenodd" clip-rule="evenodd" fill="#D30000" d="M162.029,38.909c-0.51-1.43-1.409-2.22-2.909-2.26
	c-1.65-0.04-3.311-0.11-4.96-0.01c-5.771,0.35-11.5,1.12-17.29,1.24c-1.551,0.03-2.631-0.4-3.671-1.51
	c-5.27-5.66-11.21-10.51-18.09-14.1c-11.68-6.11-23.52-7.44-35.52-0.82c-3.16,1.75-3.14,1.63-1.22,4.25
	c0.84,1.14,0.74,1.79-0.58,2.45c-1.55,0.79-2.86,1.94-4.1,3.19c-0.79,0.8-0.92,1.42-0.02,2.25c4.92,4.52,8.33,10.21,12.02,15.69
	c1.16,1.72,1.07,2.71-0.34,4.19c-9.72,10.25-18.17,21.4-24.19,34.28c-2.29,4.899-2.34,5.1,2.7,6.81c1.22,0.41,1.77,0.74,1.11,2.2
	c-3.55,7.88-8.09,15.15-13.23,22.07c-0.76,1.02-1.26,0.93-2.07,0.029c-5.01-5.52-8.96-11.659-11.32-18.77
	c-0.33-1.01-0.41-2.11-1.36-3.12c-1.14,3-1.49,6-1.46,9.021c0.06,7.8,1.96,15.21,5.13,22.279c0.69,1.55,0.83,2.58-0.41,3.931
	c-2.4,2.609-4.65,5.369-6.85,8.159c-2,2.54-1.7,4.271,0.87,6.33c0.51,0.41,1.06,0.87,1.66,1.051c2.03,0.59,2.77,2.189,3.35,3.96
	c0.48,1.5,0.93,3,1.46,4.479c0.91,2.561,2.26,4.78,4.91,5.91c7.98,3.41,15.76,7.25,23.48,11.19c1.23,0.619,1.84,0.47,2.57-0.7
	c1.88-3.05,4.33-5.641,6.93-8.07c13.45-12.58,29.83-19.32,47.359-23.78c1.44-0.359,1.851,0.32,2.341,1.44
	c4.64,10.7,6.819,21.899,6.77,33.55c-0.01,2.68,0,5.36,0,8.23c0.811-0.431,1.17-1.16,1.59-1.82c1.95-3.07,3.931-6.12,5.811-9.23
	c11.35-18.68,20.05-38.449,24.449-59.97C172.08,87.799,170.6,63.129,162.029,38.909z M56.75,151.509c-1.53,1.49-2.93,3.11-4.4,4.67
	c-0.33,0.351-0.71,0.65-1.12,1.04c-1.04-0.65-1.21-1.68-1.31-2.59c-0.27-2.43-1.12-4.58-2.34-6.68c-0.76-1.32-1.67-2.54-2.89-3.28
	c-1.43-0.87-0.87-1.32-0.09-2.16c2.38-2.57,2.32-2.57,4.84-0.08c2.34,2.3,4.7,4.601,7.18,6.76
	C57.61,150.068,57.709,150.568,56.75,151.509z M146.81,138.559c-0.05,0.13-0.24,0.21-0.46,0.391c-1.02-3.011-1.99-5.98-3.05-8.92
	c-0.38-1.07,0.01-1.891,0.42-2.82c2.35-5.28,3.84-10.7,3.03-16.58c-0.95-7.01-7.301-14.521-13.471-15.66
	c-0.13,1.7,0.721,3.2,0.971,4.79c1.76,11.14-2.38,19.78-11.29,26.24c-6.67,4.83-14.21,8.1-21.69,11.439
	c-6.34,2.82-12.72,5.561-19.06,8.4c-6.7,3.01-12.23,7.52-16.52,13.49c-2.29,3.18-2.24,3.22-5.77,1c4.15-5.13,8.43-10.141,12.4-15.4
	c3.72-4.93,7.46-9.92,9.05-16.08c0.76-2.93,1.16-5.84-0.54-8.87c-1.51,2.561-2.86,5.08-4.43,7.44c-1.88,2.81-3.99,5.47-5.94,8.24
	c-0.7,0.989-1.41,0.96-2.3,0.38c-3.04-1.99-5.92-4.2-8.67-6.59c-0.92-0.79-1.07-1.45-0.46-2.65c4.4-8.7,8.68-17.45,12.99-26.19
	c1.28-2.59,2.44-5.229,3.75-7.81c0.61-1.2,0.28-1.65-0.88-2.21c-2.88-1.38-2.87-1.48-1.41-4.42c4.79-9.65,12.13-17.27,19.8-24.59
	c0.82-0.78,1.55-2.6,2.78-1.98c0.98,0.51,0.25,2.28,0.38,3.48c0.24,2.25-0.18,4.56,0.51,7.3c2.68-4.5,3.93-8.97,4.81-13.56
	c1.43-7.5,1.54-14.82-2.891-21.53c-2.83-4.28-6.77-7.36-11.509-10.2c4.52-1.12,8.64-1.3,12.81-0.67c6.27,0.95,12,3.07,16.34,7.94
	c2.74,3.07,4.66,6.62,5.28,10.72c0.27,1.78,0.87,2.98,2.77,3.12c6.22,0.45,9.12,4.01,10.51,9.93c1.75,7.43,5.42,13.93,11.24,19.18
	c3.5,3.16,5.47,7.3,6.5,12.01C156.67,105.119,154.229,122.108,146.81,138.559z"/>
<path fill-rule="evenodd" clip-rule="evenodd" fill="#D30000" d="M119.22,53.109c-3.24,0.64-6.49,1.29-9.71,2.01
	c-1.04,0.24-1.29-0.16-1.41-1.07c-0.939-7.07-2.74-13.93-5.07-20.66c-0.529-1.56,0.131-1.59,1.25-1.27
	c5.311,1.48,9.551,4.44,12.381,9.23c1.869,3.16,3.1,6.57,3.659,10.39C120.529,52.499,120.14,52.929,119.22,53.109z"/>
 -->
 
<path fill-rule="evenodd" clip-rule="evenodd" fill="#f1f1f1" d="M160.029,37.909c-0.51-1.43-1.409-2.22-2.909-2.26
	c-1.65-0.04-3.311-0.11-4.96-0.01c-5.771,0.35-11.5,1.12-17.29,1.24c-1.551,0.03-2.631-0.4-3.671-1.51
	c-5.27-5.66-11.21-10.51-18.09-14.1c-11.68-6.11-23.52-7.44-35.52-0.82c-3.16,1.75-3.14,1.63-1.22,4.25
	c0.84,1.14,0.74,1.79-0.58,2.45c-1.55,0.79-2.86,1.94-4.1,3.19c-0.79,0.8-0.92,1.42-0.02,2.25c4.92,4.52,8.33,10.21,12.02,15.69
	c1.16,1.72,1.07,2.71-0.34,4.19c-9.72,10.25-18.17,21.4-24.19,34.28c-2.29,4.899-2.34,5.1,2.7,6.81c1.22,0.41,1.77,0.74,1.11,2.2
	c-3.55,7.88-8.09,15.15-13.23,22.07c-0.76,1.02-1.26,0.93-2.07,0.029c-5.01-5.52-8.96-11.659-11.32-18.77
	c-0.33-1.01-0.41-2.11-1.36-3.12c-1.14,3-1.49,6-1.46,9.021c0.06,7.8,1.96,15.21,5.13,22.279c0.69,1.55,0.83,2.58-0.41,3.931
	c-2.4,2.609-4.65,5.369-6.85,8.159c-2,2.54-1.7,4.271,0.87,6.33c0.51,0.41,1.06,0.87,1.66,1.051c2.03,0.59,2.77,2.189,3.35,3.96
	c0.48,1.5,0.93,3,1.46,4.479c0.91,2.561,2.26,4.78,4.91,5.91c7.98,3.41,15.76,7.25,23.48,11.19c1.23,0.619,1.84,0.47,2.57-0.7
	c1.88-3.05,4.33-5.641,6.93-8.07c13.45-12.58,29.83-19.32,47.359-23.78c1.44-0.359,1.851,0.32,2.341,1.44
	c4.64,10.7,6.819,21.899,6.77,33.55c-0.01,2.68,0,5.36,0,8.23c0.811-0.431,1.17-1.16,1.59-1.82c1.95-3.07,3.931-6.12,5.811-9.23
	c11.35-18.68,20.05-38.449,24.449-59.97C170.08,86.799,168.6,62.129,160.029,37.909z M54.75,150.509c-1.53,1.49-2.93,3.11-4.4,4.67
	c-0.33,0.351-0.71,0.65-1.12,1.04c-1.04-0.65-1.21-1.68-1.31-2.59c-0.27-2.43-1.12-4.58-2.34-6.68c-0.76-1.32-1.67-2.54-2.89-3.28
	c-1.43-0.87-0.87-1.32-0.09-2.16c2.38-2.57,2.32-2.57,4.84-0.08c2.34,2.3,4.7,4.601,7.18,6.76
	C55.61,149.068,55.709,149.568,54.75,150.509z M144.81,137.559c-0.05,0.13-0.24,0.21-0.46,0.391c-1.02-3.011-1.99-5.98-3.05-8.92
	c-0.38-1.07,0.01-1.891,0.42-2.82c2.35-5.28,3.84-10.7,3.03-16.58c-0.95-7.01-7.301-14.521-13.471-15.66
	c-0.13,1.7,0.721,3.2,0.971,4.79c1.76,11.14-2.38,19.78-11.29,26.24c-6.67,4.83-14.21,8.1-21.69,11.439
	c-6.34,2.82-12.72,5.561-19.06,8.4c-6.7,3.01-12.23,7.52-16.52,13.49c-2.29,3.18-2.24,3.22-5.77,1c4.15-5.13,8.43-10.141,12.4-15.4
	c3.72-4.93,7.46-9.92,9.05-16.08c0.76-2.93,1.16-5.84-0.54-8.87c-1.51,2.561-2.86,5.08-4.43,7.44c-1.88,2.81-3.99,5.47-5.94,8.24
	c-0.7,0.989-1.41,0.96-2.3,0.38c-3.04-1.99-5.92-4.2-8.67-6.59c-0.92-0.79-1.07-1.45-0.46-2.65c4.4-8.7,8.68-17.45,12.99-26.19
	c1.28-2.59,2.44-5.229,3.75-7.81c0.61-1.2,0.28-1.65-0.88-2.21c-2.88-1.38-2.87-1.48-1.41-4.42c4.79-9.65,12.13-17.27,19.8-24.59
	c0.82-0.78,1.55-2.6,2.78-1.98c0.98,0.51,0.25,2.28,0.38,3.48c0.24,2.25-0.18,4.56,0.51,7.3c2.68-4.5,3.93-8.97,4.81-13.56
	c1.43-7.5,1.54-14.82-2.89-21.53c-2.83-4.28-6.77-7.36-11.51-10.2c4.52-1.12,8.64-1.3,12.81-0.67c6.27,0.95,12,3.07,16.34,7.94
	c2.74,3.07,4.66,6.62,5.28,10.72c0.27,1.78,0.87,2.98,2.77,3.12c6.22,0.45,9.12,4.01,10.51,9.93c1.75,7.43,5.42,13.93,11.24,19.18
	c3.5,3.16,5.47,7.3,6.5,12.01C154.67,104.119,152.229,121.108,144.81,137.559z"/>
<path fill-rule="evenodd" clip-rule="evenodd" fill="#f1f1f1" d="M117.22,52.109c-3.24,0.64-6.49,1.29-9.71,2.01
	c-1.04,0.24-1.29-0.16-1.41-1.07c-0.939-7.07-2.74-13.93-5.07-20.66c-0.529-1.56,0.131-1.59,1.25-1.27
	c5.311,1.48,9.551,4.44,12.381,9.23c1.869,3.16,3.1,6.57,3.659,10.39C118.529,51.499,118.14,51.929,117.22,52.109z"/>
</svg>
